<?xml version="1.0" encoding="UTF-8"?>
<svg version="1.1" xmlns="http://www.w3.org/2000/svg" width="128" height="128">
<path d="M0 0 C10.23386368 9.88890198 10.23386368 9.88890198 10.93359375 15.73046875 C10.30601878 21.32223224 6.22863636 24.77059922 2.5859375 28.828125 C2.04710938 29.44945312 1.50828125 30.07078125 0.953125 30.7109375 C-12.4726247 45.21614446 -31.61004931 53.66146246 -51.13085938 54.82397461 C-72.54957829 55.51678388 -90.81569819 46.38771885 -106.23925781 31.97729492 C-117.04913178 21.55968561 -117.04913178 21.55968561 -117.80859375 15.875 C-117.09022415 10.3271952 -113.04043087 6.86746058 -109.4140625 2.828125 C-108.87523438 2.20679687 -108.33640625 1.58546875 -107.78125 0.9453125 C-96.78833828 -10.93145141 -81.13765116 -19.12204099 -65.4140625 -22.171875 C-64.1765625 -22.419375 -62.9390625 -22.666875 -61.6640625 -22.921875 C-37.79829987 -25.30845126 -17.3627635 -15.62086813 0 0 Z M-68.4140625 -6.171875 C-69.3009375 -5.594375 -70.1878125 -5.016875 -71.1015625 -4.421875 C-76.9932397 1.31056768 -79.558781 7.34731528 -79.7265625 15.515625 C-79.68215506 21.66922747 -78.9440216 25.802836 -75.4140625 30.828125 C-74.8365625 31.715 -74.2590625 32.601875 -73.6640625 33.515625 C-67.93161982 39.4073022 -61.89487222 41.9728435 -53.7265625 42.140625 C-45.86296358 42.07577058 -41.4794723 40.54519278 -35.6640625 35.390625 C-28.82816924 27.60530212 -26.9408516 22.72202629 -27.09375 12.28125 C-27.52062376 7.67934265 -28.78365405 4.5728037 -31.4140625 0.828125 C-31.9915625 -0.05875 -32.5690625 -0.945625 -33.1640625 -1.859375 C-38.89650518 -7.7510522 -44.93325278 -10.3165935 -53.1015625 -10.484375 C-59.25516497 -10.43996756 -63.3887735 -9.7018341 -68.4140625 -6.171875 Z " fill="#F6F6F6" transform="translate(117.4140625,48.171875)"/>
<path d="M0 0 C3.98561154 2.62688033 6.23980531 5.28191592 7.75 9.8125 C8.1912996 15.10809524 8.01365335 18.7623982 5.07421875 23.26953125 C2.24124059 26.570494 -0.97757616 28.42570445 -5.26953125 29.15625 C-9.99115922 29.37292126 -13.34214812 28.38812965 -17.25 25.8125 C-21.32152088 21.41085581 -22.61308851 17.98672308 -22.53515625 11.94140625 C-21.92814602 7.40961757 -19.55250092 3.99659174 -16.1875 0.9375 C-10.97331171 -2.0900932 -5.50600204 -2.01180844 0 0 Z " fill="#F6F6F6" transform="translate(71.25,50.1875)"/>
</svg>
