<svg width="60" height="60" viewBox="0 0 60 60" fill="none" xmlns="http://www.w3.org/2000/svg">
<rect width="60" height="60" rx="30" fill="#FAAD1A"/>
<g clip-path="url(#clip0_4_2)">
<path d="M42.6412 29.2898C42.6412 31.5667 40.8403 33.4133 38.6181 33.4133C36.3966 33.4133 34.5957 31.5667 34.5957 29.2898C34.5957 27.0122 36.3966 25.1663 38.6181 25.1663C40.8403 25.1663 42.6412 27.0114 42.6412 29.2898Z" fill="#344C36"/>
<path d="M31.4028 15C28.0556 16.7794 25.412 19.7601 24.0154 23.383H15V15H31.4028Z" fill="#344C36"/>
<path d="M38.6181 15C32.9738 15 28.1134 18.4386 25.9205 23.383C25.1227 25.1829 24.6775 27.1822 24.6775 29.289V44.9992H32.787V29.8917V29.2898H32.7577C32.7577 26.3471 34.8233 23.8986 37.5486 23.3838H39.6898H45V15H38.6181Z" fill="#344C36"/>
</g>
<defs>
<clipPath id="clip0_4_2">
<rect width="30" height="30" fill="white" transform="translate(15 15)"/>
</clipPath>
</defs>
</svg>
