<svg width="256" height="256" viewBox="0 0 256 256" fill="none" xmlns="http://www.w3.org/2000/svg">
<g clip-path="url(#clip0_2_9)">
<path d="M128.812 55.375C132 56 132 56 133.225 57.4573C136.43 62.8811 139.34 68.4117 142.125 74.0625C142.837 75.4955 142.837 75.4955 143.563 76.9575C147.386 84.6854 151.104 92.4623 154.803 100.25C158.599 108.22 162.54 116.112 166.508 123.997C170.504 131.957 174.374 139.971 178.183 148.021C180.145 152.16 182.12 156.281 184.242 160.34C184.575 160.98 184.908 161.62 185.251 162.279C186.108 163.912 186.981 165.536 187.855 167.16C189.192 170.476 189.525 172.458 189 176C187.199 178.938 187.199 178.938 184.688 182C184.24 182.556 183.792 183.112 183.33 183.685C182.38 184.865 181.424 186.04 180.463 187.21C178.078 190.127 175.761 193.097 173.438 196.062C172.984 196.638 172.53 197.214 172.062 197.807C167.608 203.464 163.289 209.217 159 215C159.808 215.037 160.616 215.075 161.449 215.113C163.052 215.212 163.052 215.212 164.688 215.312C165.743 215.371 166.799 215.429 167.887 215.488C172.316 216.216 174.935 217.558 177.618 221.19C179.286 224.583 179.388 226.956 179.398 230.727C179.402 232.005 179.406 233.284 179.41 234.602C179.404 235.262 179.398 235.922 179.391 236.603C179.375 238.626 179.391 240.648 179.41 242.672C179.406 243.948 179.402 245.224 179.398 246.539C179.395 247.706 179.392 248.874 179.388 250.077C178.951 253.367 178.545 254.016 176 256C172.958 256.296 170.121 256.41 167.078 256.388C165.709 256.396 165.709 256.396 164.313 256.404C161.292 256.417 158.271 256.409 155.25 256.398C153.154 256.4 151.058 256.403 148.962 256.407C144.567 256.412 140.172 256.405 135.777 256.391C130.138 256.374 124.499 256.384 118.859 256.402C114.53 256.413 110.202 256.409 105.873 256.401C103.793 256.399 101.714 256.402 99.6339 256.409C96.7296 256.416 93.8261 256.405 90.9219 256.388C90.0584 256.394 89.1949 256.4 88.3053 256.407C82.4326 256.344 82.4326 256.344 80.3182 254.664C76.8823 250.327 77.7773 244.551 77.75 239.312C77.7294 238.344 77.7087 237.375 77.6875 236.377C77.654 230.192 78.3359 225.608 81 220C86.0425 214.958 92.2401 215.219 99 215C98.1776 213.996 97.3552 212.992 96.5078 211.957C90.3011 204.36 84.1693 196.723 78.2305 188.914C75.6389 185.528 72.9725 182.206 70.2773 178.902C68.8945 176.843 68.398 175.438 68 173C68.9854 170.215 70.0574 167.664 71.3125 165C71.7013 164.155 72.0901 163.31 72.4907 162.439C77.5184 151.66 82.9204 141.056 88.2673 130.433C92.5555 121.911 96.7929 113.373 100.875 104.75C105.946 94.0403 111.225 83.4394 116.565 72.8618C117.593 70.8118 118.61 68.7561 119.619 66.6968C120.417 65.0738 120.417 65.0738 121.23 63.418C121.713 62.4295 122.195 61.441 122.692 60.4226C124.413 57.2344 125.227 56.1718 128.812 55.375Z" fill="#354C35"/>
<path d="M29.4922 0.941402C33.4296 3.31125 36.5456 6.07298 39 10C39.495 12.475 39.495 12.475 40 15C62.44 15 84.88 15 108 15C108 12.03 108 9.06 108 6C109.159 3.5813 110.123 1.87677 112 -4.17233e-06C114.486 -0.125686 116.942 -0.188632 119.43 -0.203129C120.176 -0.208829 120.922 -0.214529 121.691 -0.220402C123.273 -0.229866 124.855 -0.236392 126.437 -0.240239C128.858 -0.249937 131.278 -0.280942 133.699 -0.312504C135.234 -0.319035 136.77 -0.324285 138.305 -0.328129C139.03 -0.340476 139.755 -0.352823 140.502 -0.365544C144.899 -0.346061 145.731 -0.269472 149 3C149 6.96 149 10.92 149 15C171.44 15 193.88 15 217 15C217.33 13.35 217.66 11.7 218 10C220.94 5.30684 224.674 1.64635 230 -4.17233e-06C237.701 -0.79595 243.809 -0.900819 250 4C254.99 9.12098 256.218 12.7119 256.313 19.75C256.342 20.4538 256.371 21.1577 256.4 21.8828C256.463 27.0545 255.357 29.8754 252 34C245.883 39.5056 241.427 40.511 233.27 40.3828C227.172 39.6688 223.684 36.7702 219.562 32.4375C218 30 218 30 217 26C207.1 26.495 207.1 26.495 197 27C198.568 28.0725 200.135 29.145 201.75 30.25C223.402 46.1132 235.924 68.8437 241 95C241.545 99.0066 241.911 102.958 242 107C242.759 106.965 243.519 106.93 244.301 106.895C245.792 106.854 245.792 106.854 247.312 106.812C248.299 106.778 249.285 106.743 250.301 106.707C253 107 253 107 254.65 108.021C256.757 111.11 256.367 114.344 256.293 117.949C256.289 118.722 256.284 119.494 256.28 120.29C256.263 122.757 256.226 125.222 256.188 127.688C256.172 129.36 256.159 131.033 256.146 132.705C256.113 136.804 256.062 140.902 256 145C251.699 147.439 248.619 148.377 243.684 148.363C242.507 148.363 241.331 148.362 240.119 148.361C238.904 148.345 237.689 148.329 236.438 148.312C235.219 148.316 234 148.319 232.744 148.322C222.328 148.259 222.328 148.259 218 146C214.699 141.048 215.628 135.122 215.629 129.322C215.625 127.074 215.589 124.828 215.551 122.58C215.545 121.148 215.541 119.717 215.539 118.285C215.531 116.985 215.523 115.684 215.514 114.344C216 111 216 111 217.669 108.56C220.588 106.606 222.27 106.584 225.75 106.75C226.735 106.786 227.72 106.822 228.734 106.859C229.482 106.906 230.23 106.952 231 107C226.43 84.6215 220.567 64.6517 204 48C203.336 47.3013 202.672 46.6027 201.988 45.8828C187.865 32.055 167.955 28.0433 149 26C149.035 26.7593 149.07 27.5185 149.105 28.3008C149.133 29.2946 149.16 30.2885 149.188 31.3125C149.222 32.2986 149.257 33.2848 149.293 34.3008C149 37 149 37 147.676 38.793C142.525 42.5029 135.157 41.1845 129.125 41.1875C127.845 41.1997 126.565 41.212 125.246 41.2246C123.396 41.2275 123.396 41.2275 121.508 41.2305C120.38 41.2346 119.252 41.2387 118.09 41.2429C114.91 40.9929 112.784 40.5509 110 39C107.943 36.1175 107.773 33.7312 107.875 30.25C107.893 29.4508 107.911 28.6516 107.93 27.8281C107.953 27.2248 107.976 26.6216 108 26C83.6175 29.2283 61.5423 35.7801 45.875 56.0625C35.2951 71.4087 29.1217 88.5064 27 107C27.6755 106.954 28.3509 106.907 29.0469 106.859C29.9389 106.823 30.8309 106.787 31.75 106.75C32.6317 106.704 33.5134 106.657 34.4219 106.609C37.9218 107.14 38.8546 108.204 41 111C41.4105 113.631 41.5853 115.839 41.5664 118.469C41.5757 119.545 41.5757 119.545 41.5852 120.642C41.5923 122.155 41.5891 123.668 41.5764 125.181C41.5625 127.493 41.5966 129.801 41.6348 132.113C41.6357 133.586 41.6339 135.059 41.6289 136.531C41.6422 137.22 41.6554 137.909 41.6691 138.618C41.6011 142.129 41.2114 143.755 38.8926 146.438C35.3714 148.339 33.0813 148.488 29.0898 148.461C27.1108 148.455 27.1108 148.455 25.0918 148.449C24.4098 148.437 23.7278 148.424 23.0252 148.412C20.9401 148.375 18.8568 148.371 16.7715 148.371C4.98701 148.267 4.98701 148.267 2 146C-1.21202 140.201 -0.328803 133.431 -0.312497 127C-0.32861 125.729 -0.344723 124.458 -0.361325 123.148C-0.361969 121.924 -0.362614 120.699 -0.363278 119.437C-0.366259 118.322 -0.36924 117.207 -0.372311 116.059C0.0445288 112.634 0.957148 110.754 3 108C5.52476 106.738 7.31201 106.901 10.125 106.937C11.4901 106.951 11.4901 106.951 12.8828 106.965C13.5815 106.976 14.2802 106.988 15 107C15.147 105.837 15.2939 104.675 15.4453 103.477C19.1182 76.4722 29.6818 50.0043 52 33C54.9542 30.9073 57.9418 28.9417 61 27C54.07 26.67 47.14 26.34 40 26C39.34 27.98 38.68 29.96 38 32C36.4141 33.8281 36.4141 33.8281 34.625 35.25C34.0398 35.7295 33.4545 36.2091 32.8516 36.7031C26.906 40.8675 21.1128 40.8328 14 40C7.87694 37.6738 3.96258 33.4345 0.750003 27.8125C-1.02672 21.1498 -0.778914 14.8726 2.65625 8.82421C9.03755 0.161236 19.1814 -2.95341 29.4922 0.941402Z" fill="#344C35"/>
<path d="M128 74C128.66 74 129.32 74 130 74C137.81 89.5235 145.616 105.042 153.052 120.75C156.31 127.614 159.699 134.405 163.125 141.188C168.406 151.654 173.297 162.263 178 173C171.104 181.777 171.104 181.777 164.207 190.555C163.759 191.125 163.31 191.696 162.848 192.284C161.949 193.429 161.049 194.573 160.15 195.718C157.731 198.796 155.313 201.876 152.898 204.957C152.392 205.602 151.887 206.247 151.365 206.912C150.389 208.156 149.414 209.401 148.439 210.646C144.269 215.963 144.269 215.963 141.247 216.383C117.323 218.418 117.323 218.418 110.47 214.585C106.424 210.849 103.909 206.217 101.361 201.387C99.0789 197.385 96.1001 193.999 93.125 190.5C92.0495 189.183 90.9765 187.864 89.9062 186.543C88.1567 184.4 86.3884 182.282 84.5937 180.176C83.9441 179.396 83.2944 178.616 82.625 177.812C82.081 177.18 81.537 176.547 80.9766 175.895C79.5945 173.213 80.2186 171.895 81 169C81.9383 166.892 82.9436 164.813 83.9922 162.758C84.2938 162.162 84.5954 161.565 84.9061 160.951C85.5537 159.672 86.2039 158.394 86.8565 157.118C88.5876 153.731 90.2988 150.334 92.0117 146.938C92.5272 145.917 92.5272 145.917 93.0531 144.876C96.016 138.999 98.8728 133.075 101.687 127.125C105.905 118.223 110.276 109.406 114.707 100.608C118.146 93.7605 121.473 86.8704 124.678 79.9106C126.904 75.0963 126.904 75.0963 128 74Z" fill="#344C36"/>
<path d="M129.563 116.188C132 117 132 117 134 119C134.246 121.864 134.374 124.639 134.414 127.508C134.433 128.348 134.453 129.189 134.473 130.055C134.533 132.745 134.579 135.435 134.625 138.125C134.663 139.947 134.702 141.768 134.742 143.59C134.838 148.06 134.922 152.53 135 157C135.952 157.461 136.905 157.922 137.886 158.397C142.773 160.913 145.65 164.668 148.375 169.375C150.059 176.449 149.394 181.746 145.566 187.984C142.478 191.959 138.794 194.402 134 196C127.28 196.76 122.213 196.455 116.652 192.43C112.501 188.838 109.418 184.78 108.594 179.301C108.351 171.553 109.664 166.723 115 161C117.881 158.45 120.029 157 124 157C123.976 155.297 123.976 155.297 123.952 153.559C123.898 149.349 123.864 145.14 123.835 140.929C123.82 139.107 123.8 137.284 123.774 135.462C123.737 132.843 123.72 130.225 123.707 127.605C123.692 126.79 123.676 125.974 123.66 125.134C123.658 119.439 123.658 119.439 125.361 117.249C127 116 127 116 129.563 116.188Z" fill="white"/>
<path d="M94.9887 225.853C96.0586 225.854 96.0586 225.854 97.1501 225.855C98.2721 225.85 98.2721 225.85 99.4167 225.845C101.902 225.835 104.386 225.833 106.871 225.832C108.591 225.829 110.311 225.825 112.032 225.822C115.642 225.816 119.253 225.814 122.864 225.815C127.499 225.815 132.134 225.801 136.769 225.784C140.323 225.773 143.877 225.771 147.431 225.771C149.14 225.77 150.85 225.766 152.559 225.758C154.946 225.748 157.333 225.751 159.72 225.757C160.432 225.751 161.143 225.746 161.876 225.74C166.772 225.772 166.772 225.772 169 228C169 233.94 169 239.88 169 246C142.6 246 116.2 246 89 246C89 225.893 89 225.893 94.9887 225.853Z" fill="#F8AC1A"/>
<path d="M226 117C232.6 117 239.2 117 246 117C246 123.6 246 130.2 246 137C239.4 137 232.8 137 226 137C226 130.4 226 123.8 226 117Z" fill="#344C36"/>
<path d="M11 117C17.6 117 24.2 117 31 117C31 123.6 31 130.2 31 137C24.4 137 17.8 137 11 137C11 130.4 11 123.8 11 117Z" fill="#344C36"/>
<path d="M132 166C134.929 167.813 137.436 169.873 139 173C139.412 177.636 138.875 180.304 136 184C132.579 186.566 129.152 186.437 125 186C121.611 183.863 120.274 182.823 119 179C118.625 175.625 118.625 175.625 119 172C122.983 167.178 125.716 165.275 132 166Z" fill="#F3A91A"/>
<path d="M242 11C244.661 13.1414 245.725 14.5687 246.371 17.9336C246.594 21.511 246.152 23.6885 244.562 26.9375C240.941 29.8524 237.606 30.4433 233 30C230.079 28.235 228.521 27.0415 227 24C226.419 16.9104 226.419 16.9104 228.875 13.0625C232.947 9.11016 236.715 9.65759 242 11Z" fill="#344C36"/>
<path d="M26 11C28.6606 13.1414 29.7253 14.5687 30.3711 17.9336C30.5943 21.511 30.1524 23.6885 28.5625 26.9375C24.941 29.8524 21.6059 30.4433 17 30C14.0786 28.235 12.5208 27.0415 11 24C10.4189 16.9104 10.4189 16.9104 12.875 13.0625C16.9471 9.11016 20.7148 9.65759 26 11Z" fill="#344C36"/>
<path d="M129.562 96.1875C132 97 132 97 134 99C133.625 102.125 133.625 102.125 133 105C129.625 105.625 129.625 105.625 126 106C124 104 124 104 123.688 101.562C124 99 124 99 125.188 97.125C127 96 127 96 129.562 96.1875Z" fill="#FAAD1A"/>
</g>
<defs>
<clipPath id="clip0_2_9">
<rect width="256" height="256" fill="white"/>
</clipPath>
</defs>
</svg>
