<?xml version="1.0" encoding="UTF-8"?>
<svg version="1.1" xmlns="http://www.w3.org/2000/svg" width="128" height="128">
<path d="M0 0 C1.06992188 -0.01611328 2.13984375 -0.03222656 3.2421875 -0.04882812 C4.77746094 -0.04979492 4.77746094 -0.04979492 6.34375 -0.05078125 C7.26349609 -0.05376221 8.18324219 -0.05674316 9.13085938 -0.05981445 C11.5 0.3125 11.5 0.3125 13.29516602 1.52832031 C14.87758423 3.87164601 14.9021922 5.40352411 14.93359375 8.22265625 C14.95075439 9.69436279 14.95075439 9.69436279 14.96826172 11.19580078 C14.95811035 12.24493652 14.94795898 13.29407227 14.9375 14.375 C14.92992676 15.45249512 14.92235352 16.52999023 14.91455078 17.64013672 C14.38131465 43.89325889 3.71671782 64.74655304 -14.6628418 83.02758789 C-21.17335743 89.24340576 -28.86089556 95.43279852 -37.5 98.3125 C-52.68 83.1325 -67.86 67.9525 -83.5 52.3125 C-71.59780659 28.50811318 -52.05827116 11.63597405 -26.77734375 3.171875 C-17.82549591 0.82454899 -9.24386283 -0.02867203 0 0 Z M-40.375 28.9375 C-43.62985437 34.10697458 -45.24305579 38.94462375 -43.8984375 45.0390625 C-41.45131504 51.78357076 -38.28709815 55.15212501 -31.8125 58.1875 C-26.77780505 59.90689582 -22.40310548 59.19708126 -17.5 57.3125 C-12.15572216 54.14996854 -9.2892464 50.31173793 -7.5 44.3125 C-6.74546938 38.38404512 -8.19308453 34.15585927 -11.5 29.3125 C-15.58081249 24.88509796 -19.86007044 22.61135995 -25.8125 21.9375 C-31.89772336 22.55633627 -35.88935601 24.84191201 -40.375 28.9375 Z " fill="#F6F6F6" transform="translate(113.5,-0.3125)"/>
<path d="M0 0 C5.47313966 4.56147547 10.53954809 9.40741321 15.55859375 14.4609375 C16.34774673 15.25150543 17.13689972 16.04207336 17.94996643 16.8565979 C20.44818661 19.36037626 22.94289044 21.86762475 25.4375 24.375 C27.13974208 26.08226248 28.84221373 27.78929609 30.54492188 29.49609375 C34.69927363 33.66141898 38.85075081 37.82959219 43 42 C39.39751547 44.84611873 36.54630379 46.04674275 32 47 C30.96697754 47.25463013 30.96697754 47.25463013 29.91308594 47.5144043 C25.19105096 48.14944694 22.6956319 47.48828109 18.75244141 44.72045898 C15.72246351 42.11609188 12.91025545 39.31503067 10.13720703 36.44091797 C8.37800528 34.62809688 6.57168442 32.87495222 4.75390625 31.12109375 C-4.75784494 21.67007427 -4.75784494 21.67007427 -4.8984375 15.53125 C-4.56005859 13.13525391 -4.56005859 13.13525391 -4 11 C-3.71125 9.88367188 -3.4225 8.76734375 -3.125 7.6171875 C-2.75375 6.71226563 -2.3825 5.80734375 -2 4.875 C-1.62875 3.94429687 -1.2575 3.01359375 -0.875 2.0546875 C-0.58625 1.37664063 -0.2975 0.69859375 0 0 Z " fill="#F6F6F6" transform="translate(27,58)"/>
<path d="M0 0 C-1.29608553 3.47670335 -2.82832079 6.4942898 -4.8125 9.625 C-10.31975897 18.70526113 -13.77105974 27.61640026 -16 38 C-18.27264504 37.74481529 -20.54312705 37.47030939 -22.8125 37.1875 C-24.07707031 37.03667969 -25.34164063 36.88585937 -26.64453125 36.73046875 C-30 36 -30 36 -31.94921875 34.92578125 C-33.7767143 31.57650501 -33.80817466 28.62101303 -33 25 C-31.10647905 21.13883189 -28.72521805 17.69651448 -26.25 14.1875 C-25.61578125 13.24712891 -24.9815625 12.30675781 -24.328125 11.33789062 C-17.67072586 1.63611834 -17.67072586 1.63611834 -12.8515625 0.48828125 C-11.74941406 0.40126953 -11.74941406 0.40126953 -10.625 0.3125 C-9.45517578 0.21582031 -9.45517578 0.21582031 -8.26171875 0.1171875 C-5.50315916 -0.02574305 -2.76139535 -0.07080501 0 0 Z " fill="#F6F6F6" transform="translate(33,34)"/>
<path d="M0 0 C-0.08750555 2.22988284 -0.19569061 4.45896005 -0.3125 6.6875 C-0.39951172 8.54955078 -0.39951172 8.54955078 -0.48828125 10.44921875 C-1.15316159 15.06277773 -2.60220192 17.79057238 -6.14135742 20.8527832 C-8.81101043 22.69241826 -11.48843674 24.51620773 -14.1875 26.3125 C-15.10853516 26.95767578 -16.02957031 27.60285156 -16.97851562 28.26757812 C-22.5435556 31.99998606 -26.2555814 34.16283079 -33 33 C-34.92578125 31.91796875 -34.92578125 31.91796875 -36 30 C-36.73046875 26.86328125 -36.73046875 26.86328125 -37.1875 23.3125 C-37.34605469 22.13300781 -37.50460938 20.95351562 -37.66796875 19.73828125 C-37.77753906 18.83464844 -37.88710938 17.93101563 -38 17 C-36.948125 16.608125 -35.89625 16.21625 -34.8125 15.8125 C-34.08289062 15.53664063 -33.35328125 15.26078125 -32.6015625 14.9765625 C-30.72562122 14.27238034 -28.84475785 13.58126184 -26.9609375 12.8984375 C-18.85440619 9.89960133 -10.72003356 6.63079504 -3.81640625 1.3203125 C-2 0 -2 0 0 0 Z " fill="#F6F6F6" transform="translate(94,95)"/>
<path d="M0 0 C3.0625 2.4375 3.0625 2.4375 5 5 C5.33 5.33 5.66 5.66 6 6 C6.53718586 10.07493843 6.91195544 14.23242614 4.98828125 17.9609375 C2.84979723 20.59390581 1.23227732 21.92257423 -2 23 C-6.25160217 23.40109454 -8.5006973 23.26378256 -12.3125 21.25 C-16.14548121 18.04099248 -16.86145318 16.52401498 -17.3125 11.5625 C-16.90777706 6.9486585 -15.63920196 4.46497008 -12.19921875 1.390625 C-8.37994176 -1.02440628 -4.3561287 -0.78241146 0 0 Z " fill="#F6F6F6" transform="translate(93,29)"/>
<path d="M0 0 C1.875 1.25 1.875 1.25 2.875 4.25 C0.05730369 10.11700908 -4.89258249 14.46279238 -9.42114258 19.02661133 C-10.93690798 20.56190035 -12.43002547 22.11720085 -13.92382812 23.67382812 C-14.89190333 24.6549558 -15.86126235 25.63481875 -16.83203125 26.61328125 C-17.7031958 27.50313721 -18.57436035 28.39299316 -19.47192383 29.30981445 C-22.6389757 31.62586867 -24.28553933 31.74515969 -28.125 31.25 C-29.125 30.25 -29.125 30.25 -29.5090332 27.55004883 C-29.00649551 23.23167504 -26.99669196 21.32097481 -23.98046875 18.44921875 C-23.45487869 17.92737503 -22.92928864 17.40553131 -22.38777161 16.86787415 C-21.27744034 15.77095245 -20.15995332 14.68123279 -19.03588867 13.59838867 C-17.31475791 11.93967602 -15.61600033 10.26045665 -13.91992188 8.57617188 C-12.837174 7.51176157 -11.753229 6.44856735 -10.66796875 5.38671875 C-10.1584819 4.88573166 -9.64899506 4.38474457 -9.12406921 3.86857605 C-3.72483012 -1.31464593 -3.72483012 -1.31464593 0 0 Z " fill="#F7F7F7" transform="translate(29.125,96.75)"/>
<path d="M0 0 C2.1640625 0.5390625 2.1640625 0.5390625 4.1640625 2.5390625 C4.18838742 7.10403968 1.76282676 9.50797531 -1.25195312 12.59960938 C-2.12883789 13.46682617 -2.12883789 13.46682617 -3.0234375 14.3515625 C-3.87131836 15.2477832 -3.87131836 15.2477832 -4.73632812 16.16210938 C-7.67496994 19.10748348 -9.01301511 20.44616704 -13.26171875 20.92578125 C-14.11121094 20.79816406 -14.96070312 20.67054688 -15.8359375 20.5390625 C-16.75 18 -16.75 18 -16.8359375 14.5390625 C-15.01948447 11.68243161 -12.66208605 9.4798419 -10.2109375 7.1640625 C-9.58058594 6.52339844 -8.95023438 5.88273437 -8.30078125 5.22265625 C-3.65751475 0.69523008 -3.65751475 0.69523008 0 0 Z " fill="#F6F6F6" transform="translate(38.8359375,107.4609375)"/>
<path d="M0 0 C2.10546875 0.97265625 2.10546875 0.97265625 3.10546875 1.97265625 C3.58203125 4.07421875 3.58203125 4.07421875 3.10546875 6.97265625 C1.17888247 9.71676914 -1.1345529 12.00106789 -3.51953125 14.34765625 C-4.44572266 15.32798828 -4.44572266 15.32798828 -5.390625 16.328125 C-7.15798086 18.09548086 -8.78470305 19.63107452 -10.89453125 20.97265625 C-14.35546875 20.88671875 -14.35546875 20.88671875 -16.89453125 19.97265625 C-17.40177303 16.89602152 -17.44363664 14.78554116 -15.66259766 12.14892578 C-13.91768623 10.18776685 -12.09679675 8.35695815 -10.20703125 6.53515625 C-9.58119141 5.88611328 -8.95535156 5.23707031 -8.31054688 4.56835938 C-3.64914255 -0.03447233 -3.64914255 -0.03447233 0 0 Z " fill="#F6F6F6" transform="translate(16.89453125,85.02734375)"/>
</svg>
