<?xml version="1.0" encoding="utf-8"?>
<!-- Generator: Adobe Illustrator 24.3.0, SVG Export Plug-In . SVG Version: 6.00 Build 0)  -->
<svg version="1.0" id="katman_1" xmlns="http://www.w3.org/2000/svg" xmlns:xlink="http://www.w3.org/1999/xlink" x="0px" y="0px"
	 viewBox="0 0 388.8 379.34" style="enable-background:new 0 0 388.8 379.34;" xml:space="preserve">
<path d="M358.23,180.69c0,28.79-23.34,52.14-52.14,52.14c-28.79,0-52.13-23.35-52.13-52.14c0-28.8,23.34-52.14,52.13-52.14
	C334.89,128.55,358.23,151.88,358.23,180.69z"/>
<path d="M212.58,0c-43.38,22.5-77.64,60.19-95.74,106H0V0H212.58z"/>
<path d="M306.09,0c-73.15,0-136.14,43.48-164.56,106c-10.34,22.76-16.11,48.04-16.11,74.68v198.65h105.1V188.3v-7.61h-0.38
	c0-37.21,26.77-68.17,62.09-74.68h27.75h68.82V0H306.09z"/>
</svg>
