<svg width="389" height="380" viewBox="0 0 389 380" fill="none" xmlns="http://www.w3.org/2000/svg">
<g clip-path="url(#clip0_1_2)">
<path d="M358.23 180.69C358.23 209.48 334.89 232.83 306.09 232.83C277.3 232.83 253.96 209.48 253.96 180.69C253.96 151.89 277.3 128.55 306.09 128.55C334.89 128.55 358.23 151.88 358.23 180.69Z" fill="#344C36"/>
<path d="M212.58 0C169.2 22.5 134.94 60.19 116.84 106H0V0H212.58Z" fill="#344C36"/>
<path d="M306.09 0C232.94 0 169.95 43.48 141.53 106C131.19 128.76 125.42 154.04 125.42 180.68V379.33H230.52V188.3V180.69H230.14C230.14 143.48 256.91 112.52 292.23 106.01H319.98H388.8V0H306.09Z" fill="#344C36"/>
</g>
<defs>
<clipPath id="clip0_1_2">
<rect width="388.8" height="379.34" fill="white"/>
</clipPath>
</defs>
</svg>
