<svg width="256" height="256" viewBox="0 0 256 256" fill="none" xmlns="http://www.w3.org/2000/svg">
<g clip-path="url(#clip0_1_2)">
<path d="M32.2236 22.8596C33.072 22.8566 33.9204 22.8536 34.7946 22.8506C37.648 22.8419 40.5015 22.8404 43.355 22.8389C45.3965 22.8342 47.4381 22.8292 49.4797 22.8238C55.0334 22.8107 60.5871 22.8043 66.1408 22.7998C69.6085 22.7969 73.0761 22.7928 76.5438 22.7883C87.3875 22.7746 98.2312 22.765 109.075 22.7611C121.604 22.7566 134.132 22.7391 146.661 22.7101C156.338 22.6885 166.015 22.6784 175.693 22.6771C181.476 22.676 187.259 22.6701 193.042 22.6522C198.481 22.6358 203.919 22.6336 209.358 22.6424C211.355 22.6432 213.353 22.6388 215.35 22.6289C218.075 22.6163 220.798 22.622 223.522 22.6325C224.315 22.6245 225.108 22.6164 225.925 22.6081C231.849 22.6614 234.911 24.1428 239.25 28C242.278 31.4606 242.124 34.5645 242.12 38.9794C242.122 40.8535 242.122 40.8535 242.124 42.7655C242.121 44.1525 242.117 45.5395 242.114 46.9265C242.113 48.3851 242.113 49.8436 242.114 51.3022C242.114 55.2647 242.108 59.2272 242.101 63.1897C242.095 67.3297 242.095 71.4697 242.093 75.6097C242.09 83.4507 242.082 91.2917 242.072 99.1327C242.061 108.059 242.055 116.985 242.05 125.911C242.04 144.274 242.022 162.637 242 181C241.142 181.006 240.284 181.012 239.401 181.018C231.322 181.076 223.244 181.148 215.166 181.236C211.013 181.28 206.86 181.32 202.706 181.346C198.699 181.372 194.692 181.413 190.685 181.463C189.155 181.48 187.626 181.491 186.096 181.498C183.955 181.507 181.815 181.535 179.675 181.568C178.455 181.579 177.236 181.59 175.98 181.601C173.036 181.759 173.036 181.759 171.167 183.306C169.219 186.133 168.366 189.372 167.375 192.625C165.105 199.895 165.105 199.895 164 201C161.73 201.094 159.457 201.117 157.185 201.114C156.117 201.114 156.117 201.114 155.027 201.114C152.663 201.113 150.298 201.105 147.934 201.098C146.298 201.096 144.663 201.094 143.028 201.093C138.716 201.09 134.403 201.08 130.091 201.069C125.694 201.058 121.297 201.054 116.9 201.049C108.267 201.038 99.6335 201.021 91 201C90.6855 199.88 90.3709 198.76 90.0469 197.605C89.6153 196.133 89.183 194.66 88.75 193.188C88.545 192.45 88.3401 191.712 88.1289 190.951C87.9162 190.239 87.7035 189.527 87.4844 188.793C87.2958 188.138 87.1073 187.484 86.9131 186.809C85.6486 184.304 84.4588 183.364 82 182C78.8516 181.528 78.8516 181.528 75.3037 181.568C74.6399 181.557 73.9761 181.547 73.2921 181.537C71.1061 181.507 68.9206 181.497 66.7344 181.488C65.2155 181.471 63.6966 181.453 62.1778 181.434C58.1863 181.386 54.1948 181.357 50.2031 181.33C46.1275 181.301 42.0521 181.254 37.9766 181.209C29.9845 181.123 21.9924 181.056 14 181C13.9299 161.79 13.877 142.579 13.8446 123.369C13.8291 114.449 13.808 105.529 13.7737 96.6096C13.7438 88.8355 13.7244 81.0615 13.7177 73.2873C13.7138 69.1707 13.7046 65.0542 13.6828 60.9376C13.6624 57.0627 13.6562 53.188 13.6607 49.313C13.6599 47.8912 13.6539 46.4693 13.6424 45.0476C13.6274 43.1051 13.6328 41.1625 13.6392 39.2199C13.6365 38.1331 13.6337 37.0463 13.6309 35.9266C14.2828 30.7583 17.16 27.36 21 24C24.7722 22.7426 28.2939 22.8553 32.2236 22.8596ZM122.562 45.125C120.751 47.9123 120.751 47.9123 121 51.125C121.807 54.0219 121.807 54.0219 123.688 55.9375C126.899 57.4133 128.665 57.0644 132 56C134.079 54.423 134.079 54.423 135 52C134.872 48.8586 134.5 46.7888 132.812 44.125C128.909 41.7019 125.933 42.1868 122.562 45.125ZM60 93C59.6012 95.774 59.4382 98.1429 59.4688 100.914C59.4649 101.684 59.4611 102.453 59.4572 103.246C59.4544 104.875 59.4618 106.504 59.4785 108.133C59.4998 110.596 59.4788 113.057 59.4531 115.52C59.4346 125.321 60.0498 133.29 65.7891 141.586C72.3031 147.934 78.7294 151.076 87.875 151.625C95.5416 151.338 102.193 148.289 107.98 143.289C116.171 134.35 116.233 123.743 116.295 112.226C116.307 110.742 116.327 109.258 116.357 107.774C116.399 105.62 116.416 103.467 116.426 101.312C116.44 100.03 116.455 98.7473 116.47 97.4258C115.921 93.4233 114.889 91.7782 112 89C109 88.25 109 88.25 106 89C103.703 90.518 103.703 90.518 102 93C101.617 95.6041 101.465 97.7992 101.496 100.398C101.487 101.111 101.477 101.824 101.468 102.558C101.439 104.83 101.436 107.102 101.438 109.375C101.434 111.641 101.424 113.905 101.397 116.171C101.38 117.578 101.377 118.985 101.39 120.391C101.333 125.765 99.9254 129.673 96.5 133.812C93.1561 136.46 89.356 136.332 85.2891 136.285C81.7336 135.842 79.6516 134.328 77 132C74.5048 128.371 74.7206 124.591 74.7266 120.348C74.7063 118.834 74.6854 117.32 74.6641 115.807C74.6415 113.432 74.625 111.058 74.6191 108.684C74.6096 106.384 74.5758 104.085 74.5391 101.785C74.5441 101.08 74.5492 100.374 74.5544 99.6477C74.4837 96.0921 74.0557 94.0891 72.1538 91.0486C70.1183 88.7407 70.1183 88.7407 67 88.4375C63.2499 89.1406 62.2803 89.9614 60 93ZM135.562 90.5625C133.837 93.254 133.588 94.7649 134.124 97.9026C136.18 102.826 140.754 106.342 144.562 109.938C145.464 110.812 146.366 111.687 147.295 112.588C149.517 114.739 151.752 116.876 154 119C152.527 122.461 150.603 124.56 147.867 127.117C147.062 127.889 146.256 128.661 145.426 129.457C143.725 131.069 142.017 132.673 140.301 134.27C139.498 135.044 138.695 135.819 137.867 136.617C137.126 137.314 136.384 138.012 135.621 138.73C133.517 141.676 133.577 143.454 134 147C135.5 149.5 135.5 149.5 138 151C141.763 151.497 143.413 151.428 146.517 149.164C147.324 148.326 148.13 147.488 148.961 146.625C150.285 145.271 150.285 145.271 151.637 143.891C152.54 142.937 153.444 141.983 154.375 141C155.31 140.035 156.246 139.072 157.184 138.109C159.47 135.752 161.741 133.383 164 131C167.343 132.44 169.394 134.224 171.863 136.879C172.586 137.635 173.308 138.391 174.053 139.17C175.556 140.761 177.051 142.36 178.537 143.967C182.972 148.79 182.972 148.79 188.891 151.125C192.046 151.261 192.046 151.261 194.438 149.438C196.449 146.299 196.433 144.684 196 141C194.192 138.368 194.192 138.368 191.625 136.039C190.723 135.156 189.82 134.273 188.891 133.363C187.937 132.46 186.983 131.556 186 130.625C185.035 129.69 184.072 128.754 183.109 127.816C180.752 125.53 178.383 123.259 176 121C177.473 117.539 179.397 115.44 182.133 112.883C182.938 112.111 183.744 111.339 184.574 110.543C186.275 108.931 187.983 107.327 189.699 105.73C190.502 104.956 191.305 104.181 192.133 103.383C192.874 102.686 193.616 101.988 194.379 101.27C196.483 98.324 196.423 96.546 196 93C194.5 90.5 194.5 90.5 192 89C188.237 88.5028 186.587 88.5715 183.483 90.8359C182.676 91.6738 181.87 92.5117 181.039 93.375C180.156 94.2773 179.273 95.1797 178.363 96.1094C177.46 97.0633 176.556 98.0172 175.625 99C174.69 99.9649 173.754 100.928 172.816 101.891C170.53 104.248 168.259 106.617 166 109C162.539 107.527 160.44 105.603 157.883 102.867C157.111 102.062 156.339 101.256 155.543 100.426C153.931 98.725 152.327 97.0167 150.73 95.3008C149.956 94.4977 149.181 93.6946 148.383 92.8672C147.686 92.1258 146.988 91.3844 146.27 90.6206C142.568 87.9775 139.334 88.1448 135.562 90.5625Z" fill="#334B35"/>
<path d="M1.19209e-07 195C24.75 195 49.5 195 75 195C79 205 79 205 79.875 209C80.6791 212.218 80.6791 212.218 83.5622 213.17C87.4655 214.112 91.1409 214.288 95.1292 214.275C95.9218 214.28 96.7144 214.285 97.5311 214.29C100.137 214.304 102.742 214.303 105.348 214.301C107.166 214.305 108.983 214.309 110.801 214.314C114.605 214.321 118.409 214.321 122.212 214.316C127.084 214.31 131.955 214.327 136.826 214.35C140.577 214.365 144.329 214.366 148.08 214.363C149.876 214.363 151.673 214.368 153.469 214.378C155.979 214.391 158.489 214.384 161 214.372C161.74 214.38 162.479 214.388 163.241 214.395C167.667 214.35 170.487 213.736 174 211C177.216 205.928 178.219 200.936 180 195C205.08 195 230.16 195 256 195C256 218.434 256 218.434 248 227C238.107 234.715 226.853 233.841 214.952 233.745C212.837 233.749 210.722 233.757 208.607 233.767C202.892 233.785 197.178 233.767 191.463 233.74C185.469 233.717 179.476 233.726 173.482 233.73C163.423 233.731 153.363 233.709 143.304 233.672C131.685 233.63 120.067 233.623 108.448 233.635C97.2512 233.647 86.0546 233.636 74.8579 233.613C70.101 233.604 65.3441 233.602 60.5871 233.606C54.985 233.61 49.3832 233.594 43.7812 233.562C41.7289 233.554 39.6767 233.552 37.6244 233.558C34.8164 233.564 32.0096 233.546 29.2017 233.521C28.3957 233.529 27.5896 233.537 26.7592 233.544C18.9409 233.425 11.5836 230.584 6 225C-1.55999 214.412 1.19209e-07 210.599 1.19209e-07 195Z" fill="#FAAD1A"/>
</g>
<defs>
<clipPath id="clip0_1_2">
<rect width="256" height="256" fill="white"/>
</clipPath>
</defs>
</svg>
