<?xml version="1.0" encoding="UTF-8"?>
<svg version="1.1" xmlns="http://www.w3.org/2000/svg" width="128" height="128">
<path d="M0 0 C0.88449326 -0.0127597 1.76898651 -0.02551941 2.68028259 -0.03866577 C3.62827225 -0.04089142 4.5762619 -0.04311707 5.55297852 -0.04541016 C6.53428238 -0.05206696 7.51558624 -0.05872375 8.52662659 -0.06558228 C10.60025154 -0.07569908 12.67390899 -0.0803996 14.74755859 -0.08007812 C17.91696856 -0.08445207 21.08498666 -0.12078452 24.25415039 -0.15869141 C26.27042168 -0.16455962 28.28669957 -0.16852898 30.30297852 -0.17041016 C31.72192665 -0.19196671 31.72192665 -0.19196671 33.16954041 -0.21395874 C37.46972883 -0.18414934 39.84397241 -0.11222939 43.56884766 2.19433594 C46.28555833 5.15182013 46.62309681 6.748023 46.67138672 10.66088867 C46.69063957 12.01788628 46.69063957 12.01788628 46.71028137 13.40229797 C46.7176683 14.38248398 46.72505524 15.36266998 46.73266602 16.37255859 C46.74073776 17.3788884 46.74880951 18.3852182 46.75712585 19.42204285 C46.77097193 21.55470046 46.78169174 23.68738028 46.78955078 25.82006836 C46.8067607 29.07952954 46.85064229 32.33797581 46.89477539 35.59716797 C46.90490244 37.66812404 46.9134185 39.73908875 46.92016602 41.81005859 C46.9376741 42.78417191 46.95518219 43.75828522 46.97322083 44.76191711 C46.95923991 49.13038791 46.92220306 51.59478023 44.59277344 55.38305664 C41.62924426 58.07695466 40.0283716 58.41934451 36.12402344 58.4675293 C35.21935837 58.48036453 34.3146933 58.49319977 33.38261414 58.50642395 C32.40242813 58.51381088 31.42224213 58.52119781 30.41235352 58.52880859 C28.90285881 58.54091621 28.90285881 58.54091621 27.36286926 58.55326843 C25.23021165 58.56711451 23.09753183 58.57783431 20.96484375 58.58569336 C17.70538257 58.60290328 14.4469363 58.64678487 11.18774414 58.69091797 C9.11678807 58.70104502 7.04582336 58.70956108 4.97485352 58.71630859 C4.0007402 58.73381668 3.02662689 58.75132477 2.022995 58.7693634 C-2.3454758 58.75538249 -4.80986812 58.71834563 -8.59814453 56.38891602 C-11.26837215 53.4514264 -11.63288517 51.87979771 -11.66674805 48.01196289 C-11.67635559 47.12731857 -11.68596313 46.24267426 -11.69586182 45.33122253 C-11.70011169 44.37291031 -11.70436157 43.41459808 -11.70874023 42.42724609 C-11.71444031 41.44311234 -11.72014038 40.45897858 -11.72601318 39.44502258 C-11.73547073 37.35943682 -11.74200015 35.27383607 -11.74584961 33.18823242 C-11.75554425 30.00136108 -11.78655623 26.81513755 -11.81811523 23.62841797 C-11.82464632 21.60303118 -11.82989637 19.57763977 -11.83374023 17.55224609 C-11.84608704 16.60000656 -11.85843384 15.64776703 -11.87115479 14.66667175 C-11.84245977 6.11772411 -11.84245977 6.11772411 -8.50561523 2.29052734 C-5.58696295 0.52347736 -3.39161912 0.03334336 0 0 Z " fill="#334C35" transform="translate(81.505615234375,69.70947265625)"/>
<path d="M0 0 C0.88464432 -0.00960754 1.76928864 -0.01921509 2.68074036 -0.02911377 C3.63905258 -0.03336365 4.59736481 -0.03761353 5.5847168 -0.04199219 C7.06091743 -0.0505423 7.06091743 -0.0505423 8.56694031 -0.05926514 C10.65252607 -0.06872269 12.73812682 -0.07525211 14.82373047 -0.07910156 C18.01060181 -0.0887962 21.19682534 -0.11980819 24.38354492 -0.15136719 C26.40893171 -0.15789827 28.43432312 -0.16314833 30.4597168 -0.16699219 C31.41195633 -0.17933899 32.36419586 -0.19168579 33.34529114 -0.20440674 C41.89423879 -0.17571172 41.89423879 -0.17571172 45.72143555 3.16113281 C47.48848553 6.0797851 47.97861953 8.27512893 48.01196289 11.66674805 C48.0247226 12.5512413 48.0374823 13.43573456 48.05062866 14.34703064 C48.05285431 15.29502029 48.05507996 16.24300995 48.05737305 17.21972656 C48.06402985 18.20103043 48.07068665 19.18233429 48.07754517 20.19337463 C48.08766197 22.26699959 48.09236249 24.34065703 48.09204102 26.41430664 C48.09641496 29.58371661 48.13274741 32.7517347 48.1706543 35.92089844 C48.17652251 37.93716972 48.18049187 39.95344761 48.18237305 41.96972656 C48.19674408 42.91569199 48.21111511 43.86165741 48.22592163 44.83628845 C48.19611223 49.13647688 48.12419228 51.51072046 45.81762695 55.2355957 C42.86014276 57.95230638 41.2639399 58.28984486 37.35107422 58.33813477 C36.44640915 58.35097 35.54174408 58.36380524 34.60966492 58.37702942 C33.62947891 58.38441635 32.64929291 58.39180328 31.6394043 58.39941406 C30.12990959 58.41152168 30.12990959 58.41152168 28.58992004 58.4238739 C26.45726243 58.43771998 24.32458261 58.44843978 22.19189453 58.45629883 C18.93243335 58.47350874 15.67398708 58.51739034 12.41479492 58.56152344 C10.34383885 58.57165048 8.27287414 58.58016655 6.2019043 58.58691406 C5.22779099 58.60442215 4.25367767 58.62193024 3.25004578 58.63996887 C-1.11842502 58.62598796 -3.58281734 58.5889511 -7.37109375 56.25952148 C-10.06499177 53.29599231 -10.40738162 51.69511965 -10.45556641 47.79077148 C-10.46840164 46.88610641 -10.48123688 45.98144135 -10.49446106 45.04936218 C-10.50184799 44.06917618 -10.50923492 43.08899017 -10.5168457 42.07910156 C-10.52491745 41.07277176 -10.5329892 40.06644196 -10.54130554 39.02961731 C-10.55515162 36.8969597 -10.56587142 34.76427988 -10.57373047 32.6315918 C-10.59094038 29.37213062 -10.63482198 26.11368435 -10.67895508 22.85449219 C-10.68908213 20.78353611 -10.69759819 18.71257141 -10.7043457 16.64160156 C-10.72185379 15.66748825 -10.73936188 14.69337494 -10.75740051 13.68974304 C-10.7434196 9.32127225 -10.70638274 6.85687993 -8.37695312 3.06860352 C-5.43946351 0.3983759 -3.86783482 0.03386288 0 0 Z " fill="#FAAD19" transform="translate(10.278564453125,69.8388671875)"/>
<path d="M0 0 C1.3569976 -0.01925285 1.3569976 -0.01925285 2.7414093 -0.03889465 C3.72159531 -0.04628159 4.70178131 -0.05366852 5.71166992 -0.0612793 C7.22116463 -0.07338692 7.22116463 -0.07338692 8.76115417 -0.08573914 C10.89381179 -0.09958522 13.02649161 -0.11030502 15.15917969 -0.11816406 C18.41864087 -0.13537398 21.67708714 -0.17925558 24.9362793 -0.22338867 C27.00723537 -0.23351572 29.07820008 -0.24203178 31.14916992 -0.2487793 C32.12328323 -0.26628738 33.09739655 -0.28379547 34.10102844 -0.30183411 C38.46949924 -0.28785319 40.93389156 -0.25081634 44.72216797 2.07861328 C47.41606599 5.04214246 47.75845584 6.64301511 47.80664062 10.54736328 C47.82589348 11.90436089 47.82589348 11.90436089 47.84553528 13.28877258 C47.85292221 14.26895859 47.86030914 15.24914459 47.86791992 16.2590332 C47.87599167 17.26536301 47.88406342 18.27169281 47.89237976 19.30851746 C47.90622584 21.44117507 47.91694564 23.57385489 47.92480469 25.70654297 C47.9420146 28.96600415 47.9858962 32.22445042 48.0300293 35.48364258 C48.04015634 37.55459865 48.04867241 39.62556336 48.05541992 41.6965332 C48.07292801 42.67064651 48.0904361 43.64475983 48.10847473 44.64839172 C48.09449382 49.01686252 48.05745696 51.48125484 45.72802734 55.26953125 C42.79053773 57.93975887 41.21890904 58.30427189 37.35107422 58.33813477 C36.4664299 58.34774231 35.58178558 58.35734985 34.67033386 58.36724854 C33.23286552 58.37362335 33.23286552 58.37362335 31.76635742 58.38012695 C30.29015678 58.38867706 30.29015678 58.38867706 28.78413391 58.3973999 C26.69854815 58.40685745 24.6129474 58.41338687 22.52734375 58.41723633 C19.34047241 58.42693097 16.15424888 58.45794295 12.9675293 58.48950195 C10.94214251 58.49603304 8.9167511 58.50128309 6.89135742 58.50512695 C5.93911789 58.51747375 4.98687836 58.52982056 4.00578308 58.5425415 C-4.54316457 58.51384649 -4.54316457 58.51384649 -8.37036133 55.17700195 C-10.13741131 52.25834967 -10.62754531 50.06300583 -10.66088867 46.67138672 C-10.67364838 45.78689346 -10.68640808 44.90240021 -10.69955444 43.99110413 C-10.70178009 43.04311447 -10.70400574 42.09512482 -10.70629883 41.1184082 C-10.71295563 40.13710434 -10.71961243 39.15580048 -10.72647095 38.14476013 C-10.73658775 36.07113518 -10.74128827 33.99747773 -10.7409668 31.92382812 C-10.74534074 28.75441816 -10.78167319 25.58640006 -10.81958008 22.41723633 C-10.82544829 20.40096504 -10.82941765 18.38468715 -10.83129883 16.3684082 C-10.84566986 15.42244278 -10.86004089 14.47647736 -10.87484741 13.50184631 C-10.84503802 9.20165788 -10.77311806 6.82741431 -8.46655273 3.10253906 C-5.50906854 0.38582839 -3.91286568 0.04828991 0 0 Z " fill="#FAAD19" transform="translate(80.370361328125,-0.177001953125)"/>
<path d="M0 0 C1.3569976 -0.01925285 1.3569976 -0.01925285 2.7414093 -0.03889465 C3.72159531 -0.04628159 4.70178131 -0.05366852 5.71166992 -0.0612793 C7.22116463 -0.07338692 7.22116463 -0.07338692 8.76115417 -0.08573914 C10.89381179 -0.09958522 13.02649161 -0.11030502 15.15917969 -0.11816406 C18.41864087 -0.13537398 21.67708714 -0.17925558 24.9362793 -0.22338867 C27.00723537 -0.23351572 29.07820008 -0.24203178 31.14916992 -0.2487793 C32.12328323 -0.26628738 33.09739655 -0.28379547 34.10102844 -0.30183411 C38.46949924 -0.28785319 40.93389156 -0.25081634 44.72216797 2.07861328 C47.39239559 5.0161029 47.75690861 6.58773159 47.79077148 10.45556641 C47.80037903 11.34021072 47.80998657 12.22485504 47.81988525 13.13630676 C47.82413513 14.09461899 47.82838501 15.05293121 47.83276367 16.0402832 C47.83846375 17.02441696 47.84416382 18.00855072 47.85003662 19.02250671 C47.85949417 21.10809247 47.86602359 23.19369323 47.86987305 25.27929688 C47.87956769 28.46616821 47.91057967 31.65239175 47.94213867 34.83911133 C47.94866975 36.86449812 47.95391981 38.88988953 47.95776367 40.9152832 C47.97011047 41.86752274 47.98245728 42.81976227 47.99517822 43.80085754 C47.96648321 52.34980519 47.96648321 52.34980519 44.62963867 56.17700195 C41.71098639 57.94405193 39.51564255 58.43418593 36.12402344 58.4675293 C35.23953018 58.480289 34.35503693 58.49304871 33.44374084 58.50619507 C32.49575119 58.50842072 31.54776154 58.51064636 30.57104492 58.51293945 C29.09908913 58.52292465 29.09908913 58.52292465 27.59739685 58.53311157 C25.5237719 58.54322837 23.45011445 58.54792889 21.37646484 58.54760742 C18.20705487 58.55198137 15.03903678 58.58831381 11.86987305 58.6262207 C9.85360176 58.63208891 7.83732387 58.63605828 5.82104492 58.63793945 C4.8750795 58.65231049 3.92911407 58.66668152 2.95448303 58.68148804 C-1.3457054 58.65167864 -3.71994897 58.57975869 -7.44482422 56.27319336 C-10.16153489 53.31570917 -10.49907337 51.7195063 -10.54736328 47.80664062 C-10.56019852 46.90197556 -10.57303375 45.99731049 -10.58625793 45.06523132 C-10.59364487 44.08504532 -10.6010318 43.10485931 -10.60864258 42.0949707 C-10.61671432 41.0886409 -10.62478607 40.0823111 -10.63310242 39.04548645 C-10.6469485 36.91282884 -10.6576683 34.78014902 -10.66552734 32.64746094 C-10.68273726 29.38799976 -10.72661886 26.12955349 -10.77075195 22.87036133 C-10.780879 20.79940525 -10.78939507 18.72844055 -10.79614258 16.6574707 C-10.81365067 15.68335739 -10.83115875 14.70924408 -10.84919739 13.70561218 C-10.83521647 9.33714139 -10.79817962 6.87274907 -8.46875 3.08447266 C-5.50522082 0.39057464 -3.90434817 0.04818479 0 0 Z " fill="#334C35" transform="translate(10.370361328125,-0.177001953125)"/>
</svg>
